<?xml version="1.0"?>
<!-- Generated by SVGo -->
<svg width="1100" height="500"
     xmlns="http://www.w3.org/2000/svg"
     xmlns:xlink="http://www.w3.org/1999/xlink">
<style type="text/css">
<![CDATA[

text.bit{
	fill:black;
	font-size:9pt;
	text-anchor:middle;
}
]]>
</style>
<style type="text/css">
<![CDATA[

polygon.placement{
	fill:white;
	stroke:black;
}

text.placement{
	fill:black;
	font-family:Helvetica;
	font-size:9pt;
	text-anchor:middle;
}
]]>
</style>
<style type="text/css">
<![CDATA[

path.breakmark{
	fill:none;
	stroke:black;
}%!(EXTRA string=black, string=Helvetica, string=9pt)
]]>
</style>
<rect x="0" y="0" width="1100" height="500" id='background' fill='gray' stroke='none' />
<text x="65" y="26" class="bit" >0</text>
<text x="95" y="26" class="bit" >1</text>
<text x="125" y="26" class="bit" >2</text>
<text x="155" y="26" class="bit" >3</text>
<text x="185" y="26" class="bit" >4</text>
<text x="215" y="26" class="bit" >5</text>
<text x="245" y="26" class="bit" >6</text>
<text x="275" y="26" class="bit" >7</text>
<text x="305" y="26" class="bit" >8</text>
<text x="335" y="26" class="bit" >9</text>
<text x="365" y="26" class="bit" >10</text>
<text x="395" y="26" class="bit" >11</text>
<text x="425" y="26" class="bit" >12</text>
<text x="455" y="26" class="bit" >13</text>
<text x="485" y="26" class="bit" >14</text>
<text x="515" y="26" class="bit" >15</text>
<text x="545" y="26" class="bit" >16</text>
<text x="575" y="26" class="bit" >17</text>
<text x="605" y="26" class="bit" >18</text>
<text x="635" y="26" class="bit" >19</text>
<text x="665" y="26" class="bit" >20</text>
<text x="695" y="26" class="bit" >21</text>
<text x="725" y="26" class="bit" >22</text>
<text x="755" y="26" class="bit" >23</text>
<text x="785" y="26" class="bit" >24</text>
<text x="815" y="26" class="bit" >25</text>
<text x="845" y="26" class="bit" >26</text>
<text x="875" y="26" class="bit" >27</text>
<text x="905" y="26" class="bit" >28</text>
<text x="935" y="26" class="bit" >29</text>
<text x="965" y="26" class="bit" >30</text>
<text x="995" y="26" class="bit" >31</text>
<text x="1025" y="26" class="bit" >bit</text>
<polygon points="50,30 170,30 170,60 50,60 50,30" class="placement" />
<text x="110" y="50" class="placement" >Version</text>
<polygon points="170,30 290,30 290,60 170,60 170,30" class="placement" />
<text x="230" y="50" class="placement" >IHL</text>
<polygon points="290,30 470,30 470,60 290,60 290,30" class="placement" />
<text x="380" y="50" class="placement" >DSCP</text>
<polygon points="470,30 530,30 530,60 470,60 470,30" class="placement" />
<text x="500" y="50" class="placement" >ECN</text>
<polygon points="530,30 1010,30 1010,60 530,60 530,30" class="placement" />
<text x="770" y="50" class="placement" >Total Length</text>
<polygon points="50,60 530,60 530,90 50,90 50,60" class="placement" />
<text x="290" y="80" class="placement" >Identification</text>
<polygon points="530,60 620,60 620,90 530,90 530,60" class="placement" />
<text x="575" y="80" class="placement" >Flags</text>
<polygon points="620,60 1010,60 1010,90 620,90 620,60" class="placement" />
<text x="815" y="80" class="placement" >Fragment Offset</text>
<polygon points="50,90 290,90 290,120 50,120 50,90" class="placement" />
<text x="170" y="110" class="placement" >Time To Live</text>
<polygon points="290,90 530,90 530,120 290,120 290,90" class="placement" />
<text x="410" y="110" class="placement" >Protocol</text>
<polygon points="530,90 1010,90 1010,120 530,120 530,90" class="placement" />
<text x="770" y="110" class="placement" >Header Checksum</text>
<polygon points="50,120 1010,120 1010,150 50,150 50,120" class="placement" />
<text x="530" y="140" class="placement" >Source IP Address</text>
<polygon points="50,150 1010,150 1010,180 50,180 50,150" class="placement" />
<text x="530" y="170" class="placement" >Destination IP Address</text>
<polygon points="50,180 1010,180 1010,240 50,240 50,210 50,210 50,180" class="placement" />
<path d="M40,207 C50,197 50,217 60,207" class="breakmark" />
<path d="M40,213 C50,203 50,223 60,213" class="breakmark" />
<path d="M1000,207 C1010,197 1010,217 1020,207" class="breakmark" />
<path d="M1000,213 C1010,203 1010,223 1020,213" class="breakmark" />
<text x="530" y="215" class="placement" >Options</text>
<polygon points="50,240 1010,240 1010,330 50,330 50,270 50,270 50,240" class="placement" />
<path d="M40,282 C50,272 50,292 60,282" class="breakmark" />
<path d="M40,288 C50,278 50,298 60,288" class="breakmark" />
<path d="M1000,282 C1010,272 1010,292 1020,282" class="breakmark" />
<path d="M1000,288 C1010,278 1010,298 1020,288" class="breakmark" />
<text x="530" y="290" class="placement" >Data</text>
</svg>
