<?xml version="1.0"?>
<!-- Generated by SVGo -->
<svg width="1042" height="500"
     xmlns="http://www.w3.org/2000/svg"
     xmlns:xlink="http://www.w3.org/1999/xlink">
<style type="text/css">
<![CDATA[
text.x-bit{fill:black;font-size:9pt;text-anchor: middle;}text.x-bit-title{fill:black;font-size:8pt;text-anchor: start;}line.x-bit{stroke:black;}
text.x-octet{fill:black;font-size:9pt;text-anchor: middle;}text.x-octet-title{fill:black;font-size:8pt;text-anchor: start;}line.x-octet{stroke:black;}
text.y-bit{fill:black;font-size:9pt;text-anchor: end;}text.y-bit-title{fill:black;font-size:8pt;text-anchor: end;}line.y-bit{stroke:black;}
text.y-octet{fill:black;font-size:9pt;text-anchor: end;}text.y-octet-title{fill:black;font-size:8pt;text-anchor: end;}line.y-octet{stroke:black;}
polygon.placement{fill:white;stroke:black;}text.placement{fill:black;font-family:Helvetica;font-size:9pt;text-anchor:middle;}
path.breakmark{fill:none;stroke:black;}

]]>
</style>
<rect x="0" y="0" width="1042" height="500" id='background' fill='gray' stroke='none' />
<line x1="72" y1="0" x2="72" y2="25" class="x-octet" />
<text x="192" y="18" class="x-octet" >0</text>
<line x1="312" y1="0" x2="312" y2="25" class="x-octet" />
<text x="432" y="18" class="x-octet" >1</text>
<line x1="552" y1="0" x2="552" y2="25" class="x-octet" />
<text x="672" y="18" class="x-octet" >2</text>
<line x1="792" y1="0" x2="792" y2="25" class="x-octet" />
<text x="912" y="18" class="x-octet" >3</text>
<line x1="1032" y1="0" x2="1032" y2="25" class="x-octet" />
<text x="77" y="9" class="x-octet-title" >octet</text>
<line x1="72" y1="25" x2="72" y2="50" class="x-bit" />
<text x="87" y="43" class="x-bit" >0</text>
<line x1="102" y1="25" x2="102" y2="50" class="x-bit" />
<text x="117" y="43" class="x-bit" >1</text>
<line x1="132" y1="25" x2="132" y2="50" class="x-bit" />
<text x="147" y="43" class="x-bit" >2</text>
<line x1="162" y1="25" x2="162" y2="50" class="x-bit" />
<text x="177" y="43" class="x-bit" >3</text>
<line x1="192" y1="25" x2="192" y2="50" class="x-bit" />
<text x="207" y="43" class="x-bit" >4</text>
<line x1="222" y1="25" x2="222" y2="50" class="x-bit" />
<text x="237" y="43" class="x-bit" >5</text>
<line x1="252" y1="25" x2="252" y2="50" class="x-bit" />
<text x="267" y="43" class="x-bit" >6</text>
<line x1="282" y1="25" x2="282" y2="50" class="x-bit" />
<text x="297" y="43" class="x-bit" >7</text>
<line x1="312" y1="25" x2="312" y2="50" class="x-bit" />
<text x="327" y="43" class="x-bit" >8</text>
<line x1="342" y1="25" x2="342" y2="50" class="x-bit" />
<text x="357" y="43" class="x-bit" >9</text>
<line x1="372" y1="25" x2="372" y2="50" class="x-bit" />
<text x="387" y="43" class="x-bit" >10</text>
<line x1="402" y1="25" x2="402" y2="50" class="x-bit" />
<text x="417" y="43" class="x-bit" >11</text>
<line x1="432" y1="25" x2="432" y2="50" class="x-bit" />
<text x="447" y="43" class="x-bit" >12</text>
<line x1="462" y1="25" x2="462" y2="50" class="x-bit" />
<text x="477" y="43" class="x-bit" >13</text>
<line x1="492" y1="25" x2="492" y2="50" class="x-bit" />
<text x="507" y="43" class="x-bit" >14</text>
<line x1="522" y1="25" x2="522" y2="50" class="x-bit" />
<text x="537" y="43" class="x-bit" >15</text>
<line x1="552" y1="25" x2="552" y2="50" class="x-bit" />
<text x="567" y="43" class="x-bit" >16</text>
<line x1="582" y1="25" x2="582" y2="50" class="x-bit" />
<text x="597" y="43" class="x-bit" >17</text>
<line x1="612" y1="25" x2="612" y2="50" class="x-bit" />
<text x="627" y="43" class="x-bit" >18</text>
<line x1="642" y1="25" x2="642" y2="50" class="x-bit" />
<text x="657" y="43" class="x-bit" >19</text>
<line x1="672" y1="25" x2="672" y2="50" class="x-bit" />
<text x="687" y="43" class="x-bit" >20</text>
<line x1="702" y1="25" x2="702" y2="50" class="x-bit" />
<text x="717" y="43" class="x-bit" >21</text>
<line x1="732" y1="25" x2="732" y2="50" class="x-bit" />
<text x="747" y="43" class="x-bit" >22</text>
<line x1="762" y1="25" x2="762" y2="50" class="x-bit" />
<text x="777" y="43" class="x-bit" >23</text>
<line x1="792" y1="25" x2="792" y2="50" class="x-bit" />
<text x="807" y="43" class="x-bit" >24</text>
<line x1="822" y1="25" x2="822" y2="50" class="x-bit" />
<text x="837" y="43" class="x-bit" >25</text>
<line x1="852" y1="25" x2="852" y2="50" class="x-bit" />
<text x="867" y="43" class="x-bit" >26</text>
<line x1="882" y1="25" x2="882" y2="50" class="x-bit" />
<text x="897" y="43" class="x-bit" >27</text>
<line x1="912" y1="25" x2="912" y2="50" class="x-bit" />
<text x="927" y="43" class="x-bit" >28</text>
<line x1="942" y1="25" x2="942" y2="50" class="x-bit" />
<text x="957" y="43" class="x-bit" >29</text>
<line x1="972" y1="25" x2="972" y2="50" class="x-bit" />
<text x="987" y="43" class="x-bit" >30</text>
<line x1="1002" y1="25" x2="1002" y2="50" class="x-bit" />
<text x="1017" y="43" class="x-bit" >31</text>
<line x1="1032" y1="25" x2="1032" y2="50" class="x-bit" />
<text x="77" y="31" class="x-bit-title" >bit</text>
<text x="37" y="59" class="y-octet-title" >octet</text>
<line x1="0" y1="50" x2="42" y2="50" class="y-bit" />
<text x="37" y="72" class="y-octet" >0</text>
<line x1="0" y1="80" x2="42" y2="80" class="y-bit" />
<text x="37" y="102" class="y-octet" >4</text>
<line x1="0" y1="110" x2="42" y2="110" class="y-bit" />
<text x="37" y="132" class="y-octet" >8</text>
<line x1="0" y1="140" x2="42" y2="140" class="y-bit" />
<text x="37" y="162" class="y-octet" >12</text>
<line x1="0" y1="170" x2="42" y2="170" class="y-bit" />
<text x="37" y="192" class="y-octet" >16</text>
<line x1="0" y1="200" x2="42" y2="200" class="y-bit" />
<text x="37" y="222" class="y-octet" >20</text>
<line x1="0" y1="230" x2="42" y2="230" class="y-bit" />
<text x="37" y="252" class="y-octet" >24</text>
<line x1="0" y1="260" x2="42" y2="260" class="y-bit" />
<text x="37" y="282" class="y-octet" >28</text>
<line x1="0" y1="290" x2="42" y2="290" class="y-bit" />
<text x="37" y="312" class="y-octet" >32</text>
<line x1="0" y1="320" x2="42" y2="320" class="y-bit" />
<text x="37" y="342" class="y-octet" >36</text>
<line x1="0" y1="350" x2="42" y2="350" class="y-bit" />
<text x="37" y="372" class="y-octet" >40</text>
<line x1="0" y1="380" x2="42" y2="380" class="y-bit" />
<text x="37" y="402" class="y-octet" >44</text>
<line x1="0" y1="410" x2="42" y2="410" class="y-bit" />
<text x="37" y="432" class="y-octet" >48</text>
<line x1="0" y1="440" x2="42" y2="440" class="y-bit" />
<text x="37" y="462" class="y-octet" >52</text>
<line x1="0" y1="470" x2="42" y2="470" class="y-bit" />
<text x="37" y="492" class="y-octet" >56</text>
<line x1="0" y1="500" x2="42" y2="500" class="y-bit" />
<text x="67" y="59" class="y-bit-title" >bit</text>
<line x1="42" y1="50" x2="72" y2="50" class="y-bit" />
<text x="67" y="72" class="y-bit" >0</text>
<line x1="42" y1="80" x2="72" y2="80" class="y-bit" />
<text x="67" y="102" class="y-bit" >32</text>
<line x1="42" y1="110" x2="72" y2="110" class="y-bit" />
<text x="67" y="132" class="y-bit" >64</text>
<line x1="42" y1="140" x2="72" y2="140" class="y-bit" />
<text x="67" y="162" class="y-bit" >96</text>
<line x1="42" y1="170" x2="72" y2="170" class="y-bit" />
<text x="67" y="192" class="y-bit" >128</text>
<line x1="42" y1="200" x2="72" y2="200" class="y-bit" />
<text x="67" y="222" class="y-bit" >160</text>
<line x1="42" y1="230" x2="72" y2="230" class="y-bit" />
<text x="67" y="252" class="y-bit" >192</text>
<line x1="42" y1="260" x2="72" y2="260" class="y-bit" />
<text x="67" y="282" class="y-bit" >224</text>
<line x1="42" y1="290" x2="72" y2="290" class="y-bit" />
<text x="67" y="312" class="y-bit" >256</text>
<line x1="42" y1="320" x2="72" y2="320" class="y-bit" />
<text x="67" y="342" class="y-bit" >288</text>
<line x1="42" y1="350" x2="72" y2="350" class="y-bit" />
<text x="67" y="372" class="y-bit" >320</text>
<line x1="42" y1="380" x2="72" y2="380" class="y-bit" />
<text x="67" y="402" class="y-bit" >352</text>
<line x1="42" y1="410" x2="72" y2="410" class="y-bit" />
<text x="67" y="432" class="y-bit" >384</text>
<line x1="42" y1="440" x2="72" y2="440" class="y-bit" />
<text x="67" y="462" class="y-bit" >416</text>
<line x1="42" y1="470" x2="72" y2="470" class="y-bit" />
<text x="67" y="492" class="y-bit" >448</text>
<line x1="42" y1="500" x2="72" y2="500" class="y-bit" />
<polygon points="72,50 192,50 192,80 72,80 72,50" class="placement" />
<text x="132" y="70" class="placement" >Version</text>
<polygon points="192,50 312,50 312,80 192,80 192,50" class="placement" />
<text x="252" y="70" class="placement" >IHL</text>
<polygon points="312,50 492,50 492,80 312,80 312,50" class="placement" />
<text x="402" y="70" class="placement" >DSCP</text>
<polygon points="492,50 552,50 552,80 492,80 492,50" class="placement" />
<text x="522" y="70" class="placement" >ECN</text>
<polygon points="552,50 1032,50 1032,80 552,80 552,50" class="placement" />
<text x="792" y="70" class="placement" >Total Length</text>
<polygon points="72,80 552,80 552,110 72,110 72,80" class="placement" />
<text x="312" y="100" class="placement" >Identification</text>
<polygon points="552,80 642,80 642,110 552,110 552,80" class="placement" />
<text x="597" y="100" class="placement" >Flags</text>
<polygon points="642,80 1032,80 1032,110 642,110 642,80" class="placement" />
<text x="837" y="100" class="placement" >Fragment Offset</text>
<polygon points="72,110 312,110 312,140 72,140 72,110" class="placement" />
<text x="192" y="130" class="placement" >Time To Live</text>
<polygon points="312,110 552,110 552,140 312,140 312,110" class="placement" />
<text x="432" y="130" class="placement" >Protocol</text>
<polygon points="552,110 1032,110 1032,140 552,140 552,110" class="placement" />
<text x="792" y="130" class="placement" >Header Checksum</text>
<polygon points="72,140 1032,140 1032,170 72,170 72,140" class="placement" />
<text x="552" y="160" class="placement" >Source IP Address</text>
<polygon points="72,170 1032,170 1032,200 72,200 72,170" class="placement" />
<text x="552" y="190" class="placement" >Destination IP Address</text>
<polygon points="72,200 1032,200 1032,500 72,500 72,230 72,230 72,200" class="placement" />
<path d="M62,347 C72,337 72,357 82,347" class="breakmark" />
<path d="M62,353 C72,343 72,363 82,353" class="breakmark" />
<path d="M1022,347 C1032,337 1032,357 1042,347" class="breakmark" />
<path d="M1022,353 C1032,343 1032,363 1042,353" class="breakmark" />
<text x="552" y="355" class="placement" >Options</text>
</svg>
