<?xml version="1.0"?>
<!-- Generated by SVGo -->
<svg width="1037" height="495"
     xmlns="http://www.w3.org/2000/svg"
     xmlns:xlink="http://www.w3.org/1999/xlink">
<style type="text/css">
<![CDATA[
text.x-bit{fill:black;font-size:9pt;text-anchor: middle;}text.x-bit-title{fill:black;font-size:8pt;text-anchor: start;}line.x-bit{stroke:black;}
text.x-octet{fill:black;font-size:9pt;text-anchor: middle;}text.x-octet-title{fill:black;font-size:8pt;text-anchor: start;}line.x-octet{stroke:black;}
text.y-bit{fill:black;font-size:9pt;text-anchor: end;}text.y-bit-title{fill:black;font-size:8pt;text-anchor: end;}line.y-bit{stroke:black;}
text.y-octet{fill:black;font-size:9pt;text-anchor: end;}text.y-octet-title{fill:black;font-size:8pt;text-anchor: end;}line.y-octet{stroke:black;}
polygon.placement{fill:white;stroke:black;}text.placement{fill:black;font-family:Helvetica;font-size:9pt;text-anchor:middle;}
path.breakmark{fill:none;stroke:black;}

]]>
</style>
<rect x="0" y="0" width="1037" height="495" id='background' fill='gray' stroke='none' />
<line x1="72" y1="0" x2="72" y2="25" class="x-octet" />
<text x="192" y="12" class="x-octet" >0</text>
<line x1="312" y1="0" x2="312" y2="25" class="x-octet" />
<text x="432" y="12" class="x-octet" >1</text>
<line x1="552" y1="0" x2="552" y2="25" class="x-octet" />
<text x="672" y="12" class="x-octet" >2</text>
<line x1="792" y1="0" x2="792" y2="25" class="x-octet" />
<text x="912" y="12" class="x-octet" >3</text>
<line x1="1032" y1="0" x2="1032" y2="25" class="x-octet" />
<text x="77" y="9" class="x-octet-title" >octet</text>
<line x1="72" y1="20" x2="72" y2="45" class="x-bit" />
<text x="87" y="38" class="x-bit" >0</text>
<line x1="102" y1="20" x2="102" y2="45" class="x-bit" />
<text x="117" y="38" class="x-bit" >1</text>
<line x1="132" y1="20" x2="132" y2="45" class="x-bit" />
<text x="147" y="38" class="x-bit" >2</text>
<line x1="162" y1="20" x2="162" y2="45" class="x-bit" />
<text x="177" y="38" class="x-bit" >3</text>
<line x1="192" y1="20" x2="192" y2="45" class="x-bit" />
<text x="207" y="38" class="x-bit" >4</text>
<line x1="222" y1="20" x2="222" y2="45" class="x-bit" />
<text x="237" y="38" class="x-bit" >5</text>
<line x1="252" y1="20" x2="252" y2="45" class="x-bit" />
<text x="267" y="38" class="x-bit" >6</text>
<line x1="282" y1="20" x2="282" y2="45" class="x-bit" />
<text x="297" y="38" class="x-bit" >7</text>
<line x1="312" y1="20" x2="312" y2="45" class="x-bit" />
<text x="327" y="38" class="x-bit" >8</text>
<line x1="342" y1="20" x2="342" y2="45" class="x-bit" />
<text x="357" y="38" class="x-bit" >9</text>
<line x1="372" y1="20" x2="372" y2="45" class="x-bit" />
<text x="387" y="38" class="x-bit" >10</text>
<line x1="402" y1="20" x2="402" y2="45" class="x-bit" />
<text x="417" y="38" class="x-bit" >11</text>
<line x1="432" y1="20" x2="432" y2="45" class="x-bit" />
<text x="447" y="38" class="x-bit" >12</text>
<line x1="462" y1="20" x2="462" y2="45" class="x-bit" />
<text x="477" y="38" class="x-bit" >13</text>
<line x1="492" y1="20" x2="492" y2="45" class="x-bit" />
<text x="507" y="38" class="x-bit" >14</text>
<line x1="522" y1="20" x2="522" y2="45" class="x-bit" />
<text x="537" y="38" class="x-bit" >15</text>
<line x1="552" y1="20" x2="552" y2="45" class="x-bit" />
<text x="567" y="38" class="x-bit" >16</text>
<line x1="582" y1="20" x2="582" y2="45" class="x-bit" />
<text x="597" y="38" class="x-bit" >17</text>
<line x1="612" y1="20" x2="612" y2="45" class="x-bit" />
<text x="627" y="38" class="x-bit" >18</text>
<line x1="642" y1="20" x2="642" y2="45" class="x-bit" />
<text x="657" y="38" class="x-bit" >19</text>
<line x1="672" y1="20" x2="672" y2="45" class="x-bit" />
<text x="687" y="38" class="x-bit" >20</text>
<line x1="702" y1="20" x2="702" y2="45" class="x-bit" />
<text x="717" y="38" class="x-bit" >21</text>
<line x1="732" y1="20" x2="732" y2="45" class="x-bit" />
<text x="747" y="38" class="x-bit" >22</text>
<line x1="762" y1="20" x2="762" y2="45" class="x-bit" />
<text x="777" y="38" class="x-bit" >23</text>
<line x1="792" y1="20" x2="792" y2="45" class="x-bit" />
<text x="807" y="38" class="x-bit" >24</text>
<line x1="822" y1="20" x2="822" y2="45" class="x-bit" />
<text x="837" y="38" class="x-bit" >25</text>
<line x1="852" y1="20" x2="852" y2="45" class="x-bit" />
<text x="867" y="38" class="x-bit" >26</text>
<line x1="882" y1="20" x2="882" y2="45" class="x-bit" />
<text x="897" y="38" class="x-bit" >27</text>
<line x1="912" y1="20" x2="912" y2="45" class="x-bit" />
<text x="927" y="38" class="x-bit" >28</text>
<line x1="942" y1="20" x2="942" y2="45" class="x-bit" />
<text x="957" y="38" class="x-bit" >29</text>
<line x1="972" y1="20" x2="972" y2="45" class="x-bit" />
<text x="987" y="38" class="x-bit" >30</text>
<line x1="1002" y1="20" x2="1002" y2="45" class="x-bit" />
<text x="1017" y="38" class="x-bit" >31</text>
<line x1="1032" y1="20" x2="1032" y2="45" class="x-bit" />
<text x="77" y="26" class="x-bit-title" >bit</text>
<text x="37" y="54" class="y-octet-title" >octet</text>
<line x1="0" y1="45" x2="42" y2="45" class="y-bit" />
<text x="37" y="67" class="y-octet" >0</text>
<line x1="0" y1="75" x2="42" y2="75" class="y-bit" />
<text x="37" y="97" class="y-octet" >4</text>
<line x1="0" y1="105" x2="42" y2="105" class="y-bit" />
<text x="37" y="127" class="y-octet" >8</text>
<line x1="0" y1="135" x2="42" y2="135" class="y-bit" />
<text x="37" y="157" class="y-octet" >12</text>
<line x1="0" y1="165" x2="42" y2="165" class="y-bit" />
<text x="37" y="187" class="y-octet" >16</text>
<line x1="0" y1="195" x2="42" y2="195" class="y-bit" />
<text x="37" y="217" class="y-octet" >20</text>
<line x1="0" y1="225" x2="42" y2="225" class="y-bit" />
<text x="37" y="247" class="y-octet" >︙</text>
<line x1="0" y1="255" x2="42" y2="255" class="y-bit" />
<text x="37" y="277" class="y-octet" >56</text>
<line x1="0" y1="285" x2="42" y2="285" class="y-bit" />
<text x="67" y="54" class="y-bit-title" >bit</text>
<line x1="42" y1="45" x2="72" y2="45" class="y-bit" />
<text x="67" y="67" class="y-bit" >0</text>
<line x1="42" y1="75" x2="72" y2="75" class="y-bit" />
<text x="67" y="97" class="y-bit" >32</text>
<line x1="42" y1="105" x2="72" y2="105" class="y-bit" />
<text x="67" y="127" class="y-bit" >64</text>
<line x1="42" y1="135" x2="72" y2="135" class="y-bit" />
<text x="67" y="157" class="y-bit" >96</text>
<line x1="42" y1="165" x2="72" y2="165" class="y-bit" />
<text x="67" y="187" class="y-bit" >128</text>
<line x1="42" y1="195" x2="72" y2="195" class="y-bit" />
<text x="67" y="217" class="y-bit" >160</text>
<line x1="42" y1="225" x2="72" y2="225" class="y-bit" />
<text x="67" y="247" class="y-bit" >︙</text>
<line x1="42" y1="255" x2="72" y2="255" class="y-bit" />
<text x="67" y="277" class="y-bit" >448</text>
<line x1="42" y1="285" x2="72" y2="285" class="y-bit" />
<polygon points="72,45 192,45 192,75 72,75 72,45" class="placement" />
<text x="132" y="65" class="placement" >Version</text>
<polygon points="192,45 312,45 312,75 192,75 192,45" class="placement" />
<text x="252" y="65" class="placement" >IHL</text>
<polygon points="312,45 492,45 492,75 312,75 312,45" class="placement" />
<text x="402" y="65" class="placement" >DSCP</text>
<polygon points="492,45 552,45 552,75 492,75 492,45" class="placement" />
<text x="522" y="65" class="placement" >ECN</text>
<polygon points="552,45 1032,45 1032,75 552,75 552,45" class="placement" />
<text x="792" y="65" class="placement" >Total Length</text>
<polygon points="72,75 552,75 552,105 72,105 72,75" class="placement" />
<text x="312" y="95" class="placement" >Identification</text>
<polygon points="552,75 642,75 642,105 552,105 552,75" class="placement" />
<text x="597" y="95" class="placement" >Flags</text>
<polygon points="642,75 1032,75 1032,105 642,105 642,75" class="placement" />
<text x="837" y="95" class="placement" >Fragment Offset</text>
<polygon points="72,105 312,105 312,135 72,135 72,105" class="placement" />
<text x="192" y="125" class="placement" >Time To Live</text>
<polygon points="312,105 552,105 552,135 312,135 312,105" class="placement" />
<text x="432" y="125" class="placement" >Protocol</text>
<polygon points="552,105 1032,105 1032,135 552,135 552,105" class="placement" />
<text x="792" y="125" class="placement" >Header Checksum</text>
<polygon points="72,135 1032,135 1032,165 72,165 72,135" class="placement" />
<text x="552" y="155" class="placement" >Source IP Address</text>
<polygon points="72,165 1032,165 1032,195 72,195 72,165" class="placement" />
<text x="552" y="185" class="placement" >Destination IP Address</text>
<polygon points="72,195 1032,195 1032,285 72,285 72,225 72,225 72,195" class="placement" />
<path d="M67,237 C72,232 72,242 77,237" class="breakmark" />
<path d="M67,243 C72,238 72,248 77,243" class="breakmark" />
<path d="M1027,237 C1032,232 1032,242 1037,237" class="breakmark" />
<path d="M1027,243 C1032,238 1032,248 1037,243" class="breakmark" />
<text x="552" y="245" class="placement" >Options</text>
</svg>
