<?xml version="1.0"?>
<!-- Generated by SVGo -->
<svg width="1012" height="500"
     xmlns="http://www.w3.org/2000/svg"
     xmlns:xlink="http://www.w3.org/1999/xlink">
<style type="text/css">
<![CDATA[
text.x-bit{fill:black;font-size:9pt;text-anchor: middle;}text.x-bit-title{fill:black;font-size:8pt;text-anchor: start;}line.x-bit{stroke:black;}
text.x-octet{fill:black;font-size:9pt;text-anchor: middle;}text.x-octet-title{fill:black;font-size:8pt;text-anchor: start;}line.x-octet{stroke:black;}
text.y-bit{fill:black;font-size:9pt;text-anchor: end;}text.y-bit-title{fill:black;font-size:8pt;text-anchor: end;}line.y-bit{stroke:black;}
text.y-octet{fill:black;font-size:9pt;text-anchor: end;}text.y-octet-title{fill:black;font-size:8pt;text-anchor: end;}line.y-octet{stroke:black;}
polygon.placement{fill:white;stroke:black;}text.placement{fill:black;font-family:Helvetica;font-size:9pt;text-anchor:middle;}
path.breakmark{fill:none;stroke:black;}

]]>
</style>
<rect x="0" y="0" width="1012" height="500" id='background' fill='gray' stroke='none' />
<line x1="42" y1="0" x2="42" y2="25" class="x-octet" />
<text x="162" y="18" class="x-octet" >0</text>
<line x1="282" y1="0" x2="282" y2="25" class="x-octet" />
<text x="402" y="18" class="x-octet" >1</text>
<line x1="522" y1="0" x2="522" y2="25" class="x-octet" />
<text x="642" y="18" class="x-octet" >2</text>
<line x1="762" y1="0" x2="762" y2="25" class="x-octet" />
<text x="882" y="18" class="x-octet" >3</text>
<line x1="1002" y1="0" x2="1002" y2="25" class="x-octet" />
<text x="47" y="9" class="x-octet-title" >octet</text>
<line x1="42" y1="25" x2="42" y2="50" class="x-bit" />
<text x="57" y="43" class="x-bit" >8</text>
<line x1="72" y1="25" x2="72" y2="50" class="x-bit" />
<text x="87" y="43" class="x-bit" >7</text>
<line x1="102" y1="25" x2="102" y2="50" class="x-bit" />
<text x="117" y="43" class="x-bit" >6</text>
<line x1="132" y1="25" x2="132" y2="50" class="x-bit" />
<text x="147" y="43" class="x-bit" >5</text>
<line x1="162" y1="25" x2="162" y2="50" class="x-bit" />
<text x="177" y="43" class="x-bit" >4</text>
<line x1="192" y1="25" x2="192" y2="50" class="x-bit" />
<text x="207" y="43" class="x-bit" >3</text>
<line x1="222" y1="25" x2="222" y2="50" class="x-bit" />
<text x="237" y="43" class="x-bit" >2</text>
<line x1="252" y1="25" x2="252" y2="50" class="x-bit" />
<text x="267" y="43" class="x-bit" >1</text>
<line x1="282" y1="25" x2="282" y2="50" class="x-bit" />
<text x="297" y="43" class="x-bit" >8</text>
<line x1="312" y1="25" x2="312" y2="50" class="x-bit" />
<text x="327" y="43" class="x-bit" >7</text>
<line x1="342" y1="25" x2="342" y2="50" class="x-bit" />
<text x="357" y="43" class="x-bit" >6</text>
<line x1="372" y1="25" x2="372" y2="50" class="x-bit" />
<text x="387" y="43" class="x-bit" >5</text>
<line x1="402" y1="25" x2="402" y2="50" class="x-bit" />
<text x="417" y="43" class="x-bit" >4</text>
<line x1="432" y1="25" x2="432" y2="50" class="x-bit" />
<text x="447" y="43" class="x-bit" >3</text>
<line x1="462" y1="25" x2="462" y2="50" class="x-bit" />
<text x="477" y="43" class="x-bit" >2</text>
<line x1="492" y1="25" x2="492" y2="50" class="x-bit" />
<text x="507" y="43" class="x-bit" >1</text>
<line x1="522" y1="25" x2="522" y2="50" class="x-bit" />
<text x="537" y="43" class="x-bit" >8</text>
<line x1="552" y1="25" x2="552" y2="50" class="x-bit" />
<text x="567" y="43" class="x-bit" >7</text>
<line x1="582" y1="25" x2="582" y2="50" class="x-bit" />
<text x="597" y="43" class="x-bit" >6</text>
<line x1="612" y1="25" x2="612" y2="50" class="x-bit" />
<text x="627" y="43" class="x-bit" >5</text>
<line x1="642" y1="25" x2="642" y2="50" class="x-bit" />
<text x="657" y="43" class="x-bit" >4</text>
<line x1="672" y1="25" x2="672" y2="50" class="x-bit" />
<text x="687" y="43" class="x-bit" >3</text>
<line x1="702" y1="25" x2="702" y2="50" class="x-bit" />
<text x="717" y="43" class="x-bit" >2</text>
<line x1="732" y1="25" x2="732" y2="50" class="x-bit" />
<text x="747" y="43" class="x-bit" >1</text>
<line x1="762" y1="25" x2="762" y2="50" class="x-bit" />
<text x="777" y="43" class="x-bit" >8</text>
<line x1="792" y1="25" x2="792" y2="50" class="x-bit" />
<text x="807" y="43" class="x-bit" >7</text>
<line x1="822" y1="25" x2="822" y2="50" class="x-bit" />
<text x="837" y="43" class="x-bit" >6</text>
<line x1="852" y1="25" x2="852" y2="50" class="x-bit" />
<text x="867" y="43" class="x-bit" >5</text>
<line x1="882" y1="25" x2="882" y2="50" class="x-bit" />
<text x="897" y="43" class="x-bit" >4</text>
<line x1="912" y1="25" x2="912" y2="50" class="x-bit" />
<text x="927" y="43" class="x-bit" >3</text>
<line x1="942" y1="25" x2="942" y2="50" class="x-bit" />
<text x="957" y="43" class="x-bit" >2</text>
<line x1="972" y1="25" x2="972" y2="50" class="x-bit" />
<text x="987" y="43" class="x-bit" >1</text>
<line x1="1002" y1="25" x2="1002" y2="50" class="x-bit" />
<text x="47" y="31" class="x-bit-title" >bit</text>
<text x="37" y="59" class="y-octet-title" >octet</text>
<line x1="0" y1="50" x2="42" y2="50" class="y-bit" />
<text x="37" y="72" class="y-octet" >0</text>
<line x1="0" y1="80" x2="42" y2="80" class="y-bit" />
<text x="37" y="102" class="y-octet" >4</text>
<line x1="0" y1="110" x2="42" y2="110" class="y-bit" />
<text x="37" y="132" class="y-octet" >8</text>
<line x1="0" y1="140" x2="42" y2="140" class="y-bit" />
<text x="37" y="162" class="y-octet" >12</text>
<line x1="0" y1="170" x2="42" y2="170" class="y-bit" />
<text x="37" y="192" class="y-octet" >16</text>
<line x1="0" y1="200" x2="42" y2="200" class="y-bit" />
<text x="37" y="222" class="y-octet" >20</text>
<line x1="0" y1="230" x2="42" y2="230" class="y-bit" />
<text x="37" y="252" class="y-octet" >24</text>
<line x1="0" y1="260" x2="42" y2="260" class="y-bit" />
<text x="37" y="282" class="y-octet" >28</text>
<line x1="0" y1="290" x2="42" y2="290" class="y-bit" />
<text x="37" y="312" class="y-octet" >32</text>
<line x1="0" y1="320" x2="42" y2="320" class="y-bit" />
<text x="37" y="342" class="y-octet" >36</text>
<line x1="0" y1="350" x2="42" y2="350" class="y-bit" />
<text x="37" y="372" class="y-octet" >40</text>
<line x1="0" y1="380" x2="42" y2="380" class="y-bit" />
<text x="37" y="402" class="y-octet" >44</text>
<line x1="0" y1="410" x2="42" y2="410" class="y-bit" />
<text x="37" y="432" class="y-octet" >48</text>
<line x1="0" y1="440" x2="42" y2="440" class="y-bit" />
<text x="37" y="462" class="y-octet" >52</text>
<line x1="0" y1="470" x2="42" y2="470" class="y-bit" />
<text x="37" y="492" class="y-octet" >56</text>
<line x1="0" y1="500" x2="42" y2="500" class="y-bit" />
<polygon points="42,50 522,50 522,80 42,80 42,50" class="placement" />
<text x="282" y="70" class="placement" >Source port</text>
<polygon points="522,50 1002,50 1002,80 522,80 522,50" class="placement" />
<text x="762" y="70" class="placement" >Destination port</text>
<polygon points="42,80 1002,80 1002,110 42,110 42,80" class="placement" />
<text x="522" y="100" class="placement" >Sequence number</text>
<polygon points="42,110 1002,110 1002,140 42,140 42,110" class="placement" />
<text x="522" y="130" class="placement" >Acknowledgement number (if ACK set)</text>
<polygon points="42,140 162,140 162,170 42,170 42,140" class="placement" />
<text x="102" y="160" class="placement" >Data offset</text>
<polygon points="162,140 252,140 252,170 162,170 162,140" class="placement" />
<text x="207" y="160" class="placement" >Reserved</text>
<polygon points="252,140 282,140 282,170 252,170 252,140" class="placement" />
<text x="267" y="160" class="placement" >NS</text>
<polygon points="282,140 312,140 312,170 282,170 282,140" class="placement" />
<text x="297" y="160" class="placement" >CWR</text>
<polygon points="312,140 342,140 342,170 312,170 312,140" class="placement" />
<text x="327" y="160" class="placement" >ECE</text>
<polygon points="342,140 372,140 372,170 342,170 342,140" class="placement" />
<text x="357" y="160" class="placement" >URG</text>
<polygon points="372,140 402,140 402,170 372,170 372,140" class="placement" />
<text x="387" y="160" class="placement" >ACK</text>
<polygon points="402,140 432,140 432,170 402,170 402,140" class="placement" />
<text x="417" y="160" class="placement" >PSH</text>
<polygon points="432,140 462,140 462,170 432,170 432,140" class="placement" />
<text x="447" y="160" class="placement" >RST</text>
<polygon points="462,140 492,140 492,170 462,170 462,140" class="placement" />
<text x="477" y="160" class="placement" >SYN</text>
<polygon points="492,140 522,140 522,170 492,170 492,140" class="placement" />
<text x="507" y="160" class="placement" >FIN</text>
<polygon points="522,140 1002,140 1002,170 522,170 522,140" class="placement" />
<text x="762" y="160" class="placement" >Window size</text>
<polygon points="42,170 522,170 522,200 42,200 42,170" class="placement" />
<text x="282" y="190" class="placement" >Checksum</text>
<polygon points="522,170 1002,170 1002,200 522,200 522,170" class="placement" />
<text x="762" y="190" class="placement" >Urgent pointer (if URG set)</text>
<polygon points="42,200 1002,200 1002,500 42,500 42,230 42,230 42,200" class="placement" />
<path d="M32,347 C42,337 42,357 52,347" class="breakmark" />
<path d="M32,353 C42,343 42,363 52,353" class="breakmark" />
<path d="M992,347 C1002,337 1002,357 1012,347" class="breakmark" />
<path d="M992,353 C1002,343 1002,363 1012,353" class="breakmark" />
<text x="522" y="355" class="placement" >Options (if data offset &gt; 5. Padded at the end with &#34;0&#34; bytes if neccessary.)</text>
</svg>
