<?xml version="1.0"?>
<!-- Generated by SVGo -->
<svg width="1100" height="500"
     xmlns="http://www.w3.org/2000/svg"
     xmlns:xlink="http://www.w3.org/1999/xlink">
<style type="text/css">
<![CDATA[
text.x-bit{fill:black;font-size:9pt;text-anchor: middle;}line.x-bit{stroke:black;}
text.x-octet{fill:black;font-size:9pt;text-anchor: middle;}line.x-octet{stroke:black;}
polygon.placement{fill:white;stroke:black;}text.placement{fill:black;font-family:Helvetica;font-size:9pt;text-anchor:middle;}
path.breakmark{fill:none;stroke:black;}

]]>
</style>
<rect x="0" y="0" width="1100" height="500" id='background' fill='gray' stroke='none' />
<line x1="50" y1="0" x2="50" y2="20" class="x-bit" />
<text x="170" y="15" class="x-octet" >0</text>
<line x1="290" y1="0" x2="290" y2="20" class="x-bit" />
<text x="410" y="15" class="x-octet" >1</text>
<line x1="530" y1="0" x2="530" y2="20" class="x-bit" />
<text x="650" y="15" class="x-octet" >2</text>
<line x1="770" y1="0" x2="770" y2="20" class="x-bit" />
<text x="890" y="15" class="x-octet" >3</text>
<line x1="1010" y1="0" x2="1010" y2="20" class="x-bit" />
<text x="1025" y="15" class="x-octet" style="text-anchor:start" >octet</text>
<line x1="50" y1="20" x2="50" y2="40" class="x-bit" />
<text x="65" y="35" class="x-bit" >8</text>
<line x1="80" y1="20" x2="80" y2="40" class="x-bit" />
<text x="95" y="35" class="x-bit" >7</text>
<line x1="110" y1="20" x2="110" y2="40" class="x-bit" />
<text x="125" y="35" class="x-bit" >6</text>
<line x1="140" y1="20" x2="140" y2="40" class="x-bit" />
<text x="155" y="35" class="x-bit" >5</text>
<line x1="170" y1="20" x2="170" y2="40" class="x-bit" />
<text x="185" y="35" class="x-bit" >4</text>
<line x1="200" y1="20" x2="200" y2="40" class="x-bit" />
<text x="215" y="35" class="x-bit" >3</text>
<line x1="230" y1="20" x2="230" y2="40" class="x-bit" />
<text x="245" y="35" class="x-bit" >2</text>
<line x1="260" y1="20" x2="260" y2="40" class="x-bit" />
<text x="275" y="35" class="x-bit" >1</text>
<line x1="290" y1="20" x2="290" y2="40" class="x-bit" />
<text x="305" y="35" class="x-bit" >8</text>
<line x1="320" y1="20" x2="320" y2="40" class="x-bit" />
<text x="335" y="35" class="x-bit" >7</text>
<line x1="350" y1="20" x2="350" y2="40" class="x-bit" />
<text x="365" y="35" class="x-bit" >6</text>
<line x1="380" y1="20" x2="380" y2="40" class="x-bit" />
<text x="395" y="35" class="x-bit" >5</text>
<line x1="410" y1="20" x2="410" y2="40" class="x-bit" />
<text x="425" y="35" class="x-bit" >4</text>
<line x1="440" y1="20" x2="440" y2="40" class="x-bit" />
<text x="455" y="35" class="x-bit" >3</text>
<line x1="470" y1="20" x2="470" y2="40" class="x-bit" />
<text x="485" y="35" class="x-bit" >2</text>
<line x1="500" y1="20" x2="500" y2="40" class="x-bit" />
<text x="515" y="35" class="x-bit" >1</text>
<line x1="530" y1="20" x2="530" y2="40" class="x-bit" />
<text x="545" y="35" class="x-bit" >8</text>
<line x1="560" y1="20" x2="560" y2="40" class="x-bit" />
<text x="575" y="35" class="x-bit" >7</text>
<line x1="590" y1="20" x2="590" y2="40" class="x-bit" />
<text x="605" y="35" class="x-bit" >6</text>
<line x1="620" y1="20" x2="620" y2="40" class="x-bit" />
<text x="635" y="35" class="x-bit" >5</text>
<line x1="650" y1="20" x2="650" y2="40" class="x-bit" />
<text x="665" y="35" class="x-bit" >4</text>
<line x1="680" y1="20" x2="680" y2="40" class="x-bit" />
<text x="695" y="35" class="x-bit" >3</text>
<line x1="710" y1="20" x2="710" y2="40" class="x-bit" />
<text x="725" y="35" class="x-bit" >2</text>
<line x1="740" y1="20" x2="740" y2="40" class="x-bit" />
<text x="755" y="35" class="x-bit" >1</text>
<line x1="770" y1="20" x2="770" y2="40" class="x-bit" />
<text x="785" y="35" class="x-bit" >8</text>
<line x1="800" y1="20" x2="800" y2="40" class="x-bit" />
<text x="815" y="35" class="x-bit" >7</text>
<line x1="830" y1="20" x2="830" y2="40" class="x-bit" />
<text x="845" y="35" class="x-bit" >6</text>
<line x1="860" y1="20" x2="860" y2="40" class="x-bit" />
<text x="875" y="35" class="x-bit" >5</text>
<line x1="890" y1="20" x2="890" y2="40" class="x-bit" />
<text x="905" y="35" class="x-bit" >4</text>
<line x1="920" y1="20" x2="920" y2="40" class="x-bit" />
<text x="935" y="35" class="x-bit" >3</text>
<line x1="950" y1="20" x2="950" y2="40" class="x-bit" />
<text x="965" y="35" class="x-bit" >2</text>
<line x1="980" y1="20" x2="980" y2="40" class="x-bit" />
<text x="995" y="35" class="x-bit" >1</text>
<line x1="1010" y1="20" x2="1010" y2="40" class="x-bit" />
<text x="1025" y="35" class="x-bit" style="text-anchor:start" >bit</text>
<polygon points="50,40 530,40 530,70 50,70 50,40" class="placement" />
<text x="290" y="60" class="placement" >Source port</text>
<polygon points="530,40 1010,40 1010,70 530,70 530,40" class="placement" />
<text x="770" y="60" class="placement" >Destination port</text>
<polygon points="50,70 1010,70 1010,100 50,100 50,70" class="placement" />
<text x="530" y="90" class="placement" >Sequence number</text>
<polygon points="50,100 1010,100 1010,130 50,130 50,100" class="placement" />
<text x="530" y="120" class="placement" >Acknowledgement number (if ACK set)</text>
<polygon points="50,130 170,130 170,160 50,160 50,130" class="placement" />
<text x="110" y="150" class="placement" >Data offset</text>
<polygon points="170,130 260,130 260,160 170,160 170,130" class="placement" />
<text x="215" y="150" class="placement" >Reserved</text>
<polygon points="260,130 290,130 290,160 260,160 260,130" class="placement" />
<text x="275" y="150" class="placement" >NS</text>
<polygon points="290,130 320,130 320,160 290,160 290,130" class="placement" />
<text x="305" y="150" class="placement" >CWR</text>
<polygon points="320,130 350,130 350,160 320,160 320,130" class="placement" />
<text x="335" y="150" class="placement" >ECE</text>
<polygon points="350,130 380,130 380,160 350,160 350,130" class="placement" />
<text x="365" y="150" class="placement" >URG</text>
<polygon points="380,130 410,130 410,160 380,160 380,130" class="placement" />
<text x="395" y="150" class="placement" >ACK</text>
<polygon points="410,130 440,130 440,160 410,160 410,130" class="placement" />
<text x="425" y="150" class="placement" >PSH</text>
<polygon points="440,130 470,130 470,160 440,160 440,130" class="placement" />
<text x="455" y="150" class="placement" >RST</text>
<polygon points="470,130 500,130 500,160 470,160 470,130" class="placement" />
<text x="485" y="150" class="placement" >SYN</text>
<polygon points="500,130 530,130 530,160 500,160 500,130" class="placement" />
<text x="515" y="150" class="placement" >FIN</text>
<polygon points="530,130 1010,130 1010,160 530,160 530,130" class="placement" />
<text x="770" y="150" class="placement" >Window size</text>
<polygon points="50,160 530,160 530,190 50,190 50,160" class="placement" />
<text x="290" y="180" class="placement" >Checksum</text>
<polygon points="530,160 1010,160 1010,190 530,190 530,160" class="placement" />
<text x="770" y="180" class="placement" >Urgent pointer (if URG set)</text>
<polygon points="50,190 1010,190 1010,490 50,490 50,220 50,220 50,190" class="placement" />
<path d="M40,337 C50,327 50,347 60,337" class="breakmark" />
<path d="M40,343 C50,333 50,353 60,343" class="breakmark" />
<path d="M1000,337 C1010,327 1010,347 1020,337" class="breakmark" />
<path d="M1000,343 C1010,333 1010,353 1020,343" class="breakmark" />
<text x="530" y="345" class="placement" >Options (if data offset &gt; 5. Padded at the end with &#34;0&#34; bytes if neccessary.)</text>
</svg>
