<?xml version="1.0"?>
<!-- Generated by SVGo -->
<svg width="1007" height="495"
     xmlns="http://www.w3.org/2000/svg"
     xmlns:xlink="http://www.w3.org/1999/xlink">
<style type="text/css">
<![CDATA[
text.x-bit{fill:black;font-size:9pt;text-anchor: middle;}text.x-bit-title{fill:black;font-size:8pt;text-anchor: start;}line.x-bit{stroke:black;}
text.x-octet{fill:black;font-size:9pt;text-anchor: middle;}text.x-octet-title{fill:black;font-size:8pt;text-anchor: start;}line.x-octet{stroke:black;}
text.y-bit{fill:black;font-size:9pt;text-anchor: end;}text.y-bit-title{fill:black;font-size:8pt;text-anchor: end;}line.y-bit{stroke:black;}
text.y-octet{fill:black;font-size:9pt;text-anchor: end;}text.y-octet-title{fill:black;font-size:8pt;text-anchor: end;}line.y-octet{stroke:black;}
polygon.placement{fill:white;stroke:black;}text.placement{fill:black;font-family:Helvetica;font-size:9pt;text-anchor:middle;}
path.breakmark{fill:none;stroke:black;}

]]>
</style>
<rect x="0" y="0" width="1007" height="495" id='background' fill='gray' stroke='none' />
<line x1="42" y1="0" x2="42" y2="25" class="x-octet" />
<text x="162" y="12" class="x-octet" >0</text>
<line x1="282" y1="0" x2="282" y2="25" class="x-octet" />
<text x="402" y="12" class="x-octet" >1</text>
<line x1="522" y1="0" x2="522" y2="25" class="x-octet" />
<text x="642" y="12" class="x-octet" >2</text>
<line x1="762" y1="0" x2="762" y2="25" class="x-octet" />
<text x="882" y="12" class="x-octet" >3</text>
<line x1="1002" y1="0" x2="1002" y2="25" class="x-octet" />
<text x="47" y="9" class="x-octet-title" >octet</text>
<line x1="42" y1="20" x2="42" y2="45" class="x-bit" />
<text x="57" y="38" class="x-bit" >8</text>
<line x1="72" y1="20" x2="72" y2="45" class="x-bit" />
<text x="87" y="38" class="x-bit" >7</text>
<line x1="102" y1="20" x2="102" y2="45" class="x-bit" />
<text x="117" y="38" class="x-bit" >6</text>
<line x1="132" y1="20" x2="132" y2="45" class="x-bit" />
<text x="147" y="38" class="x-bit" >5</text>
<line x1="162" y1="20" x2="162" y2="45" class="x-bit" />
<text x="177" y="38" class="x-bit" >4</text>
<line x1="192" y1="20" x2="192" y2="45" class="x-bit" />
<text x="207" y="38" class="x-bit" >3</text>
<line x1="222" y1="20" x2="222" y2="45" class="x-bit" />
<text x="237" y="38" class="x-bit" >2</text>
<line x1="252" y1="20" x2="252" y2="45" class="x-bit" />
<text x="267" y="38" class="x-bit" >1</text>
<line x1="282" y1="20" x2="282" y2="45" class="x-bit" />
<text x="297" y="38" class="x-bit" >8</text>
<line x1="312" y1="20" x2="312" y2="45" class="x-bit" />
<text x="327" y="38" class="x-bit" >7</text>
<line x1="342" y1="20" x2="342" y2="45" class="x-bit" />
<text x="357" y="38" class="x-bit" >6</text>
<line x1="372" y1="20" x2="372" y2="45" class="x-bit" />
<text x="387" y="38" class="x-bit" >5</text>
<line x1="402" y1="20" x2="402" y2="45" class="x-bit" />
<text x="417" y="38" class="x-bit" >4</text>
<line x1="432" y1="20" x2="432" y2="45" class="x-bit" />
<text x="447" y="38" class="x-bit" >3</text>
<line x1="462" y1="20" x2="462" y2="45" class="x-bit" />
<text x="477" y="38" class="x-bit" >2</text>
<line x1="492" y1="20" x2="492" y2="45" class="x-bit" />
<text x="507" y="38" class="x-bit" >1</text>
<line x1="522" y1="20" x2="522" y2="45" class="x-bit" />
<text x="537" y="38" class="x-bit" >8</text>
<line x1="552" y1="20" x2="552" y2="45" class="x-bit" />
<text x="567" y="38" class="x-bit" >7</text>
<line x1="582" y1="20" x2="582" y2="45" class="x-bit" />
<text x="597" y="38" class="x-bit" >6</text>
<line x1="612" y1="20" x2="612" y2="45" class="x-bit" />
<text x="627" y="38" class="x-bit" >5</text>
<line x1="642" y1="20" x2="642" y2="45" class="x-bit" />
<text x="657" y="38" class="x-bit" >4</text>
<line x1="672" y1="20" x2="672" y2="45" class="x-bit" />
<text x="687" y="38" class="x-bit" >3</text>
<line x1="702" y1="20" x2="702" y2="45" class="x-bit" />
<text x="717" y="38" class="x-bit" >2</text>
<line x1="732" y1="20" x2="732" y2="45" class="x-bit" />
<text x="747" y="38" class="x-bit" >1</text>
<line x1="762" y1="20" x2="762" y2="45" class="x-bit" />
<text x="777" y="38" class="x-bit" >8</text>
<line x1="792" y1="20" x2="792" y2="45" class="x-bit" />
<text x="807" y="38" class="x-bit" >7</text>
<line x1="822" y1="20" x2="822" y2="45" class="x-bit" />
<text x="837" y="38" class="x-bit" >6</text>
<line x1="852" y1="20" x2="852" y2="45" class="x-bit" />
<text x="867" y="38" class="x-bit" >5</text>
<line x1="882" y1="20" x2="882" y2="45" class="x-bit" />
<text x="897" y="38" class="x-bit" >4</text>
<line x1="912" y1="20" x2="912" y2="45" class="x-bit" />
<text x="927" y="38" class="x-bit" >3</text>
<line x1="942" y1="20" x2="942" y2="45" class="x-bit" />
<text x="957" y="38" class="x-bit" >2</text>
<line x1="972" y1="20" x2="972" y2="45" class="x-bit" />
<text x="987" y="38" class="x-bit" >1</text>
<line x1="1002" y1="20" x2="1002" y2="45" class="x-bit" />
<text x="47" y="26" class="x-bit-title" >bit</text>
<text x="37" y="54" class="y-octet-title" >octet</text>
<line x1="0" y1="45" x2="42" y2="45" class="y-bit" />
<text x="37" y="67" class="y-octet" >0</text>
<line x1="0" y1="75" x2="42" y2="75" class="y-bit" />
<text x="37" y="97" class="y-octet" >4</text>
<line x1="0" y1="105" x2="42" y2="105" class="y-bit" />
<text x="37" y="127" class="y-octet" >8</text>
<line x1="0" y1="135" x2="42" y2="135" class="y-bit" />
<text x="37" y="157" class="y-octet" >12</text>
<line x1="0" y1="165" x2="42" y2="165" class="y-bit" />
<text x="37" y="187" class="y-octet" >16</text>
<line x1="0" y1="195" x2="42" y2="195" class="y-bit" />
<text x="37" y="217" class="y-octet" >20</text>
<line x1="0" y1="225" x2="42" y2="225" class="y-bit" />
<text x="37" y="247" class="y-octet" >︙</text>
<line x1="0" y1="255" x2="42" y2="255" class="y-bit" />
<text x="37" y="277" class="y-octet" >56</text>
<line x1="0" y1="285" x2="42" y2="285" class="y-bit" />
<polygon points="42,45 522,45 522,75 42,75 42,45" class="placement"  />
<text x="282" y="65" class="placement" >Source port</text>
<polygon points="522,45 1002,45 1002,75 522,75 522,45" class="placement"  />
<text x="762" y="65" class="placement" >Destination port</text>
<polygon points="42,75 1002,75 1002,105 42,105 42,75" class="placement"  />
<text x="522" y="95" class="placement" >Sequence number</text>
<polygon points="42,105 1002,105 1002,135 42,135 42,105" class="placement"  />
<text x="522" y="125" class="placement" >Acknowledgement number (if ACK set)</text>
<polygon points="42,135 162,135 162,165 42,165 42,135" class="placement"  />
<text x="102" y="155" class="placement" >Data offset</text>
<polygon points="162,135 252,135 252,165 162,165 162,135" class="placement"  />
<text x="207" y="155" class="placement" >Reserved</text>
<polygon points="252,135 282,135 282,165 252,165 252,135" class="placement"  />
<text x="267" y="155" class="placement" >NS</text>
<polygon points="282,135 312,135 312,165 282,165 282,135" class="placement"  />
<text x="297" y="155" class="placement" >CWR</text>
<polygon points="312,135 342,135 342,165 312,165 312,135" class="placement"  />
<text x="327" y="155" class="placement" >ECE</text>
<polygon points="342,135 372,135 372,165 342,165 342,135" class="placement"  />
<text x="357" y="155" class="placement" >URG</text>
<polygon points="372,135 402,135 402,165 372,165 372,135" class="placement"  />
<text x="387" y="155" class="placement" >ACK</text>
<polygon points="402,135 432,135 432,165 402,165 402,135" class="placement"  />
<text x="417" y="155" class="placement" >PSH</text>
<polygon points="432,135 462,135 462,165 432,165 432,135" class="placement"  />
<text x="447" y="155" class="placement" >RST</text>
<polygon points="462,135 492,135 492,165 462,165 462,135" class="placement"  />
<text x="477" y="155" class="placement" >SYN</text>
<polygon points="492,135 522,135 522,165 492,165 492,135" class="placement"  />
<text x="507" y="155" class="placement" >FIN</text>
<polygon points="522,135 1002,135 1002,165 522,165 522,135" class="placement"  />
<text x="762" y="155" class="placement" >Window size</text>
<polygon points="42,165 522,165 522,195 42,195 42,165" class="placement"  />
<text x="282" y="185" class="placement" >Checksum</text>
<polygon points="522,165 1002,165 1002,195 522,195 522,165" class="placement"  />
<text x="762" y="185" class="placement" >Urgent pointer (if URG set)</text>
<polygon points="42,195 1002,195 1002,285 42,285 42,225 42,225 42,195" class="placement"  />
<path d="M37,237 C42,232 42,242 47,237" class="breakmark" />
<path d="M37,243 C42,238 42,248 47,243" class="breakmark" />
<path d="M997,237 C1002,232 1002,242 1007,237" class="breakmark" />
<path d="M997,243 C1002,238 1002,248 1007,243" class="breakmark" />
<text x="522" y="245" class="placement" >Options (if data offset &gt; 5. Padded at the end with &#34;0&#34; bytes if neccessary.)</text>
</svg>
